Coordinates
version=1
nRows=28
nColumns=34
inDegrees=no

Units are S.I. units (second, meters, Newtons, ...)
If the header above contains a line with 'inDegrees', this indicates whether rotational values are in degrees (yes) or radians (no).

endheader
time	pelvis_tilt	pelvis_list	pelvis_rotation	pelvis_tx	pelvis_ty	pelvis_tz	hip_flexion_r	hip_adduction_r	hip_rotation_r	knee_angle_r	ankle_angle_r	subtalar_angle_r	mtp_angle_r	hip_flexion_l	hip_adduction_l	hip_rotation_l	knee_angle_l	ankle_angle_l	subtalar_angle_l	mtp_angle_l	lumbar_extension	lumbar_bending	lumbar_rotation	arm_flex_r	arm_add_r	arm_rot_r	elbow_flex_r	pro_sup_r	arm_flex_l	arm_add_l	arm_rot_l	elbow_flex_l	pro_sup_l
2.28	-0.153321	-0.0566384	-0.0517805	-0.107883	1.22956	-0.581953	0.0945497	-0.0434058	-0.299158	-0.0140735	-0.756882	0.0967518	-0.109938	0.144873	-0.192193	-0.420172	0.0395491	-0.715836	0.113951	-0.109939	-0.154934	0.0886701	0.0339628	1.25769	-0.736196	0.675102	1.97983	1.55992	1.34713	-0.871189	0.74017	2.09994	1.33278
2.29	-0.145266	-0.0556686	-0.0436831	-0.107921	1.23921	-0.58221	0.0903983	-0.0460106	-0.308178	-0.0169501	-0.75209	0.0920773	-0.109927	0.140775	-0.186579	-0.415593	0.0263359	-0.709871	0.132713	-0.109928	-0.167087	0.0889756	0.0322369	1.19614	-0.752476	0.641524	1.97321	1.56743	1.26576	-0.881736	0.689573	2.10201	1.33759
2.3	-0.138972	-0.0549071	-0.0364443	-0.108005	1.24768	-0.582305	0.088087	-0.0477526	-0.314528	-0.0194149	-0.749997	0.0891648	-0.109916	0.139995	-0.182192	-0.407898	0.0168123	-0.705474	0.151248	-0.109916	-0.177524	0.0893164	0.0308021	1.13563	-0.765381	0.607183	1.96542	1.57193	1.18668	-0.890367	0.641363	2.10224	1.34178
2.31	-0.134241	-0.0545948	-0.0303602	-0.108074	1.255	-0.582202	0.087347	-0.0482806	-0.31754	-0.0213401	-0.749893	0.0881217	-0.109904	0.142319	-0.179638	-0.396899	0.0122165	-0.702538	0.168261	-0.109905	-0.186153	0.0897104	0.0302504	1.07584	-0.775284	0.572065	1.95665	1.57416	1.11104	-0.896619	0.597185	2.10013	1.34616
2.32	-0.130697	-0.0548445	-0.0255757	-0.108089	1.26119	-0.581879	0.0877857	-0.0474552	-0.317096	-0.0227255	-0.750862	0.0888818	-0.109893	0.147047	-0.179128	-0.382997	0.0126619	-0.700758	0.182714	-0.109893	-0.193166	0.0901239	0.0310328	1.01659	-0.782591	0.536223	1.9469	1.5751	1.03974	-0.900004	0.558209	2.09522	1.3516
2.33	-0.127924	-0.0556122	-0.0220884	-0.108035	1.26629	-0.581337	0.0890105	-0.0453687	-0.313562	-0.0236508	-0.752012	0.0912348	-0.109881	0.153225	-0.180477	-0.367107	0.0173165	-0.699738	0.193901	-0.109882	-0.198884	0.090456	0.0333726	0.957948	-0.78767	0.499886	1.93607	1.57585	0.973327	-0.900153	0.525029	2.0872	1.359
2.34	-0.125589	-0.0567252	-0.0197765	-0.10791	1.27031	-0.580603	0.0907144	-0.0423115	-0.307646	-0.0242355	-0.752643	0.0948593	-0.10987	0.159871	-0.183197	-0.350502	0.0247334	-0.699074	0.20151	-0.109871	-0.203627	0.0905474	0.0372072	0.900291	-0.79077	0.463535	1.92401	1.5774	0.911913	-0.896944	0.497614	2.07607	1.36908
2.35	-0.1235	-0.0579356	-0.0184328	-0.107703	1.27329	-0.579723	0.0927132	-0.0386964	-0.300246	-0.0246096	-0.752319	0.0993465	-0.109859	0.166161	-0.186628	-0.334588	0.0332344	-0.698405	0.205649	-0.109859	-0.207612	0.0902178	0.0421739	0.844297	-0.791984	0.427941	1.91061	1.58051	0.855112	-0.890574	0.475322	2.06215	1.38232
2.36	-0.121604	-0.0589792	-0.0177972	-0.107407	1.27522	-0.578752	0.0949404	-0.0349652	-0.29229	-0.0248977	-0.75087	0.104225	-0.109847	0.171549	-0.19009	-0.320656	0.0412637	-0.697447	0.206819	-0.109848	-0.210908	0.0893113	0.0476645	0.790877	-0.791262	0.39411	1.89579	1.5856	0.802108	-0.881547	0.457028	2.0461	1.39875
2.37	-0.119948	-0.0596084	-0.0175967	-0.107016	1.27611	-0.577735	0.0974105	-0.0314997	-0.284601	-0.0252125	-0.748325	0.109	-0.109836	0.175794	-0.193013	-0.309649	0.0476464	-0.69601	0.205826	-0.109836	-0.213449	0.0877383	0.052953	0.741014	-0.788498	0.363115	1.87957	1.59265	0.751842	-0.870549	0.441371	2.02877	1.41783
2.38	-0.11865	-0.0596449	-0.01759	-0.106532	1.27595	-0.576712	0.100171	-0.0285723	-0.277781	-0.0256517	-0.744784	0.113209	-0.109825	0.178928	-0.195003	-0.302	0.0517271	-0.693987	0.203662	-0.109825	-0.215099	0.0854791	0.0573616	0.695568	-0.783641	0.335878	1.86207	1.60114	0.70328	-0.858271	0.427042	2.01108	1.43847
2.39	-0.117841	-0.0590052	-0.0176005	-0.105956	1.27473	-0.575708	0.103262	-0.0263308	-0.272148	-0.0262991	-0.740289	0.11649	-0.109813	0.181172	-0.195864	-0.297575	0.053382	-0.691344	0.201366	-0.109814	-0.215719	0.0825781	0.0603972	0.655124	-0.776773	0.313	1.84356	1.61019	0.65562	-0.845272	0.412991	1.99386	1.45925
2.4	-0.117622	-0.057696	-0.0175318	-0.105297	1.27243	-0.574744	0.106706	-0.0248149	-0.267719	-0.0272209	-0.734712	0.118647	-0.109802	0.182848	-0.19557	-0.295732	0.052933	-0.688091	0.19989	-0.109802	-0.215221	0.0791358	0.0618153	0.619936	-0.768116	0.294683	1.82435	1.61884	0.60839	-0.831906	0.398497	1.97765	1.47898
2.41	-0.118021	-0.0557955	-0.017362	-0.104566	1.26905	-0.57383	0.110489	-0.0239861	-0.264259	-0.0284553	-0.727703	0.119665	-0.109791	0.184275	-0.194232	-0.295477	0.0510051	-0.684239	0.200004	-0.109791	-0.213616	0.0752972	0.0616228	0.589951	-0.75802	0.28075	1.80486	1.62625	0.561482	-0.818325	0.383178	1.96271	1.49693
2.42	-0.118964	-0.0534321	-0.0171209	-0.103781	1.2646	-0.572973	0.114568	-0.0237615	-0.261363	-0.029992	-0.718711	0.119675	-0.109779	0.185686	-0.192051	-0.295663	0.0483708	-0.679757	0.202226	-0.109779	-0.211064	0.071235	0.0600569	0.564838	-0.746942	0.270664	1.78554	1.63185	0.515172	-0.804499	0.366999	1.94895	1.51281
2.43	-0.120267	-0.0507613	-0.0168593	-0.102967	1.25908	-0.572173	0.118865	-0.0240446	-0.258573	-0.0317443	-0.707052	0.118896	-0.109768	0.187184	-0.189283	-0.29519	0.0458133	-0.674533	0.206778	-0.109768	-0.207885	0.0671326	0.0575408	0.54404	-0.735421	0.263587	1.76692	1.63537	0.470116	-0.790258	0.35026	1.93604	1.52669
2.44	-0.121641	-0.0479439	-0.0166207	-0.10216	1.25252	-0.571436	0.123298	-0.0247519	-0.255476	-0.0335195	-0.692036	0.117579	-0.109757	0.188737	-0.1862	-0.293155	0.0440248	-0.668364	0.213567	-0.109757	-0.20454	0.0631665	0.0546001	0.526884	-0.724036	0.258498	1.74952	1.63687	0.427253	-0.775362	0.333518	1.92349	1.53882
2.45	-0.122733	-0.0451343	-0.0164192	-0.101404	1.24496	-0.570766	0.12779	-0.0258329	-0.251777	-0.0349923	-0.673117	0.115944	-0.109745	0.190229	-0.183053	-0.288948	0.0435477	-0.660992	0.22218	-0.109745	-0.201564	0.0594889	0.0517416	0.512742	-0.71333	0.254407	1.73382	1.63663	0.387598	-0.759595	0.317398	1.91081	1.54946
2.46	-0.123214	-0.042456	-0.0162298	-0.100734	1.23643	-0.57017	0.132271	-0.0272693	-0.247328	-0.0356913	-0.650069	0.114125	-0.109734	0.191544	-0.180041	-0.282274	0.0447563	-0.652174	0.231903	-0.109734	-0.199467	0.0562116	0.0493276	0.501207	-0.703724	0.250577	1.72015	1.6351	0.351995	-0.742864	0.302388	1.89757	1.55884
2.47	-0.122852	-0.0399781	-0.0159935	-0.100177	1.22695	-0.569654	0.136723	-0.0290832	-0.242124	-0.0350074	-0.623128	0.112104	-0.109723	0.192643	-0.177285	-0.27312	0.0478773	-0.641784	0.241734	-0.109723	-0.198656	0.0534029	0.0475065	0.492179	-0.695488	0.246666	1.70872	1.63275	0.320959	-0.725247	0.28871	1.88355	1.5671
2.48	-0.121543	-0.0377124	-0.0156264	-0.099756	1.21652	-0.569218	0.141229	-0.0313429	-0.236275	-0.0322338	-0.593102	0.109656	-0.109711	0.193624	-0.174824	-0.261665	0.0530372	-0.62992	0.250413	-0.109711	-0.199388	0.0510822	0.0462308	0.485827	-0.68876	0.242713	1.69958	1.63001	0.294677	-0.706991	0.276348	1.86871	1.57423
2.49	-0.119299	-0.0356295	-0.0150368	-0.0994969	1.20516	-0.568859	0.146004	-0.0341558	-0.229951	-0.0266347	-0.561391	0.106323	-0.1097	0.194751	-0.172626	-0.248188	0.0603216	-0.616975	0.256473	-0.1097	-0.201742	0.0492143	0.0453426	0.482462	-0.683616	0.239002	1.69269	1.62715	0.273132	-0.688457	0.265178	1.85324	1.58011
2.5	-0.116226	-0.033671	-0.0141317	-0.0994301	1.19285	-0.568575	0.151394	-0.0376468	-0.223319	-0.0175294	-0.529929	0.10144	-0.109689	0.196453	-0.170601	-0.232967	0.0698363	-0.603645	0.258346	-0.109689	-0.205643	0.0477123	0.044678	0.482401	-0.680125	0.235884	1.68796	1.62431	0.256252	-0.67006	0.255108	1.83746	1.58456
2.51	-0.112521	-0.0317594	-0.012825	-0.099585	1.17958	-0.568361	0.157842	-0.0419315	-0.216481	-0.00435014	-0.500966	0.0942262	-0.109677	0.199284	-0.168632	-0.216217	0.0817603	-0.590825	0.254533	-0.109677	-0.210895	0.0464592	0.0441283	0.485892	-0.678366	0.233678	1.6853	1.62143	0.243997	-0.652225	0.246134	1.82186	1.58742
2.52	-0.108474	-0.0298175	-0.0110467	-0.0999905	1.16531	-0.568207	0.165833	-0.0470945	-0.209417	0.0133457	-0.476666	0.0839589	-0.109666	0.203873	-0.166587	-0.198036	0.0963891	-0.579369	0.243836	-0.109666	-0.217228	0.0453426	0.0436391	0.493133	-0.678414	0.232648	1.68459	1.6183	0.236348	-0.635352	0.2383	1.80699	1.58877
2.53	-0.104408	-0.027792	-0.00874679	-0.100667	1.15	-0.568108	0.175838	-0.0531671	-0.201937	0.0358801	-0.458555	0.0701722	-0.109655	0.210862	-0.164347	-0.178406	0.114157	-0.569736	0.225637	-0.109654	-0.224333	0.0442863	0.0431866	0.504316	-0.680307	0.233036	1.68569	1.61462	0.233282	-0.619804	0.231646	1.79343	1.58896
2.54	-0.100624	-0.0256709	-0.00589682	-0.101621	1.13362	-0.568066	0.188235	-0.0601091	-0.193674	0.0634678	-0.44693	0.0528496	-0.109643	0.220829	-0.161824	-0.157251	0.135635	-0.561603	0.200147	-0.109643	-0.231897	0.0432722	0.0427637	0.519662	-0.684027	0.235092	1.68843	1.61006	0.234751	-0.605891	0.226199	1.78176	1.58848
2.55	-0.0973739	-0.0234855	-0.00249394	-0.102851	1.11614	-0.568076	0.203264	-0.0678039	-0.18416	0.0962457	-0.440368	0.0325665	-0.109632	0.234212	-0.158972	-0.13451	0.161513	-0.553524	0.168527	-0.109632	-0.239639	0.042343	0.0423767	0.539433	-0.689502	0.23909	1.69263	1.60435	0.240694	-0.593871	0.221993	1.7725	1.58775
